<svg xmlns="http://www.w3.org/2000/svg" width="148" height="54" fill="none"><path fill="#FFFFFF" d="M37.008 14.728 30.42 40h-7.452l-4.032-16.632L14.76 40H7.308L.9 14.728h6.588l3.636 18.396 4.5-18.396h6.768l4.32 18.396 3.672-18.396h6.624Zm9.243 0V40h-6.156V14.728h6.156Zm10.617 20.52h8.065V40h-14.22V14.728h6.155v20.52Zm47.672 0h8.064V40h-14.22V14.728h6.156v20.52Zm32.673-20.52-8.748 16.92V40h-6.156v-8.352l-8.748-16.92h6.984l4.896 10.584 4.86-10.584h6.912Zm5.36 25.56c-1.08 0-1.968-.312-2.664-.936a3.174 3.174 0 0 1-1.008-2.376c0-.96.336-1.764 1.008-2.412.696-.648 1.584-.972 2.664-.972 1.056 0 1.92.324 2.592.972.696.648 1.044 1.452 1.044 2.412 0 .936-.348 1.728-1.044 2.376-.672.624-1.536.936-2.592.936ZM82.71 26.5c0-4.187-6.576-10.125-10.727-10.125-1.87 0-2.986 1.414-2.986 3.784 0 2.575 1.343 4.276 1.343 6.341 0 2.084-1.343 3.79-1.343 6.342 0 2.37 1.117 3.783 2.986 3.783 4.151 0 10.728-5.937 10.728-10.125Zm.676-7.766c1.856-.549 3.059-2.238 2.686-3.774-.373-1.536-2.18-2.336-4.036-1.787-1.857.548-3.059 2.238-2.686 3.774.373 1.535 2.18 2.335 4.036 1.787ZM84.5 23.2c.436 1.632 2.676 2.448 5.002 1.824 2.326-.625 3.857-2.453 3.421-4.085-.436-1.632-2.675-2.448-5.001-1.824-2.326.625-3.858 2.454-3.422 4.085Zm1.572 14.839c.373-1.536-.83-3.225-2.685-3.774-1.857-.548-3.663.252-4.036 1.788-.373 1.535.829 3.224 2.685 3.773 1.856.549 3.663-.251 4.036-1.787ZM84.5 29.8c-.436 1.63 1.096 3.46 3.422 4.084 2.326.624 4.565-.192 5.001-1.824.437-1.631-1.095-3.46-3.421-4.084-2.326-.625-4.566.192-5.002 1.823Z"/></svg>